{"title":"Comfort and Joy (2003) DVDRip ","uid":9371419,"size":733999107,"categoryP":"video","categoryS":"movies","magnet":"?xt=urn:btih:ada6448b1659459b1b2a4e4d747a46b2ceb92ae7&amp;dn=Comfort+and+Joy+%282003%29+DVDRip+&amp;tr=udp%3A%2F%2Ftracker.openbittorrent.com%3A80&amp;tr=udp%3A%2F%2Fopen.demonii.com%3A1337&amp;tr=udp%3A%2F%2Ftracker.coppersurfer.tk%3A6969&amp;tr=udp%3A%2F%2Fexodus.desync.com%3A6969","seeders":1,"leechers":0,"uploader":"7","files":1,"time":1387534441,"description":"enre\t, Romance, Comedy, Drama\nActors\tNancy McKeon, Steven Eckholdt, Paul Dooley\nPlot\tThe life of Jane Berry was all materialist, until one Christmas Eve, she is involved in a car accident that changes her life forever. She wakes up to discover she is the mother of two, a ... \n\nIMDB link\t\n &lt;a href=&quot;\nhttp://www.imdb.com/title/tt0383278/&quot; rel=&quot;nofollow&quot; target=&quot;_NEW&quot;&gt;\nhttp://www.imdb.com/title/tt0383278/&lt;/a&gt;\n\nGeneral\nComplete name                            : Comfort and Joy (2003).avi\nFormat                                   : AVI\nFormat/Info                              : Audio Video Interleave\nFile size                                : 700 MiB\nDuration                                 : 1h 25mn\nOverall bit rate mode                    : Variable\nOverall bit rate                         : 1 151 Kbps\nWriting application                      : VirtualDubMod 1.5.4.1 (build 2178/release)\nWriting library                          : VirtualDubMod build 2178/release\n\nVideo\nID                                       : 0\nFormat                                   : MPEG-4 Visual\nFormat profile                           : Advanced Simple@L5\nFormat settings, BVOP                    : 1\nFormat settings, QPel                    : No\nFormat settings, GMC                     : No warppoints\nFormat settings, Matrix                  : Custom\nCodec ID                                 : XVID\nCodec ID/Hint                            : XviD\nDuration                                 : 1h 25mn\nBit rate                                 : 1 029 Kbps\nWidth                                    : 560 pixels\nHeight                                   : 416 pixels\nDisplay aspect ratio                     : 4:3\nFrame rate                               : 25.000 fps\nColor space                              : YUV\nChroma subsampling                       : 4:2:0\nBit depth                                : 8 bits\nScan type                                : Progressive\nCompression mode                         : Lossy\nBits/(Pixel*Frame)                       : 0.177\nStream size                              : 626 MiB (89%)\nWriting library                          : XviD 1.2.0.dev47 (UTC 2006-11-01)\n\nAudio\nID                                       : 1\nFormat                                   : MPEG Audio\nFormat version                           : Version 1\nFormat profile                           : Layer 3\nMode                                     : Joint stereo\nMode extension                           : MS Stereo\nCodec ID                                 : 55\nCodec ID/Hint                            : MP3\nDuration                                 : 1h 25mn\nBit rate mode                            : Variable\nBit rate                                 : 109 Kbps\nNominal bit rate                         : 128 Kbps\nChannel(s)                               : 2 channels\nSampling rate                            : 48.0 KHz\nCompression mode                         : Lossy\nStream size                              : 66.5 MiB (9%)\nAlignment                                : Aligned on interleaves\nInterleave, duration                     : 24 ms (0.60 video frame)\nInterleave, preload duration             : 168 ms\nWriting library                          : LAME3.97\nEncoding settings                        : -m j -V 4 -q 2 -lowpass 17 --abr 128\nLanguage                                 : English\n\n &lt;a href=&quot;\nhttp://lookpic.com/O/i2/1914/sBgUn8b.jpeg&quot; rel=&quot;nofollow&quot; target=&quot;_NEW&quot;&gt;\nhttp://lookpic.com/O/i2/1914/sBgUn8b.jpeg&lt;/a&gt;","torrent":{"xt":"urn:btih:ada6448b1659459b1b2a4e4d747a46b2ceb92ae7","amp;dn":"Comfort+and+Joy+%282003%29+DVDRip+","amp;tr":["udp%3A%2F%2Ftracker.openbittorrent.com%3A80","udp%3A%2F%2Fopen.demonii.com%3A1337","udp%3A%2F%2Ftracker.coppersurfer.tk%3A6969","udp%3A%2F%2Fexodus.desync.com%3A6969"],"infoHash":"ada6448b1659459b1b2a4e4d747a46b2ceb92ae7","infoHashBuffer":{"type":"Buffer","data":[173,166,68,139,22,89,69,155,27,42,78,77,116,122,70,178,206,185,42,231]},"announce":[],"urlList":[]}}